HIERARCHY
ROOT hip
{
  OFFSET 0 0 0
  CHANNELS 6 Xposition Yposition Zposition Zrotation Yrotation Xrotation
  JOINT abdomen
  {
    OFFSET 0 20.6881 -0.73152
    CHANNELS 3 Zrotation Xrotation Yrotation
    JOINT chest
    {
      OFFSET 0 11.7043 -0.48768
      CHANNELS 3 Zrotation Xrotation Yrotation
      JOINT neck
      {
        OFFSET 0 22.1894 -2.19456
        CHANNELS 3 Zrotation Xrotation Yrotation
        JOINT head
        {
          OFFSET -0.24384 7.07133 1.2192
          CHANNELS 3 Zrotation Xrotation Yrotation
          JOINT leftEye
          {
            OFFSET 4.14528 8.04674 8.04672
            CHANNELS 3 Zrotation Xrotation Yrotation
            End Site
            {
              OFFSET 1 0 0
            }
          }
          JOINT rightEye
          {
            OFFSET -3.6576 8.04674 8.04672
            CHANNELS 3 Zrotation Xrotation Yrotation
            End Site
            {
              OFFSET 1 0 0
            }
          }
        }
      }
      JOINT rCollar
      {
        OFFSET -2.68224 19.2634 -4.8768
        CHANNELS 3 Zrotation Xrotation Yrotation
        JOINT rShldr
        {
          OFFSET -8.77824 -1.95073 1.46304
          CHANNELS 3 Zrotation Xrotation Yrotation
          JOINT rForeArm
          {
            OFFSET -28.1742 -1.7115 0.48768
            CHANNELS 3 Zrotation Xrotation Yrotation
            JOINT rHand
            {
              OFFSET -22.5879 0.773209 7.07136
              CHANNELS 3 Zrotation Xrotation Yrotation
              JOINT rThumb1
              {
                OFFSET -1.2192 -0.487915 3.41376
                CHANNELS 3 Zrotation Xrotation Yrotation
                JOINT rThumb2
                {
                  OFFSET -3.37035 -0.52449 3.41376
                  CHANNELS 3 Zrotation Xrotation Yrotation
                  End Site
                  {
                    OFFSET -1.78271 -1.18214 1.43049
                  }
                }
              }
              JOINT rIndex1
              {
                OFFSET -7.75947 0.938293 5.60832
                CHANNELS 3 Zrotation Xrotation Yrotation
                JOINT rIndex2
                {
                  OFFSET -2.54057 -0.884171 1.56538
                  CHANNELS 3 Zrotation Xrotation Yrotation
                  End Site
                  {
                    OFFSET -1.62519 -0.234802 1.16502
                  }
                }
              }
              JOINT rMid1
              {
                OFFSET -8.24714 1.18213 3.41376
                CHANNELS 3 Zrotation Xrotation Yrotation
                JOINT rMid2
                {
                  OFFSET -3.10165 -0.590103 1.0647
                  CHANNELS 3 Zrotation Xrotation Yrotation
                  End Site
                  {
                    OFFSET -2.48547 -0.328903 0.83742
                  }
                }
              }
              JOINT rRing1
              {
                OFFSET -8.82822 0.546677 1.51678
                CHANNELS 3 Zrotation Xrotation Yrotation
                JOINT rRing2
                {
                  OFFSET -2.60934 -0.819778 -0.0198488
                  CHANNELS 3 Zrotation Xrotation Yrotation
                  End Site
                  {
                    OFFSET -2.33842 -0.294052 0.168128
                  }
                }
              }
              JOINT rPinky1
              {
                OFFSET -8.27202 -0.0477905 -0.4584
                CHANNELS 3 Zrotation Xrotation Yrotation
                JOINT rPinky2
                {
                  OFFSET -1.82734 -0.647385 -0.700984
                  CHANNELS 3 Zrotation Xrotation Yrotation
                  End Site
                  {
                    OFFSET -1.69225 -0.51767 -0.607171
                  }
                }
              }
            }
          }
        }
      }
      JOINT lCollar
      {
        OFFSET 2.68224 19.2634 -4.8768
        CHANNELS 3 Zrotation Xrotation Yrotation
        JOINT lShldr
        {
          OFFSET 8.77824 -1.95073 1.46304
          CHANNELS 3 Zrotation Xrotation Yrotation
          JOINT lForeArm
          {
            OFFSET 28.1742 -1.7115 0.48768
            CHANNELS 3 Zrotation Xrotation Yrotation
            JOINT lHand
            {
              OFFSET 22.5879 0.773209 7.07136
              CHANNELS 3 Zrotation Xrotation Yrotation
              JOINT lThumb1
              {
                OFFSET 1.2192 -0.487915 3.41376
                CHANNELS 3 Zrotation Xrotation Yrotation
                JOINT lThumb2
                {
                  OFFSET 3.37035 -0.52449 3.41376
                  CHANNELS 3 Zrotation Xrotation Yrotation
                  End Site
                  {
                    OFFSET 1.78271 -1.18214 1.43049
                  }
                }
              }
              JOINT lIndex1
              {
                OFFSET 7.75947 0.938293 5.60832
                CHANNELS 3 Zrotation Xrotation Yrotation
                JOINT lIndex2
                {
                  OFFSET 2.54057 -0.884171 1.56538
                  CHANNELS 3 Zrotation Xrotation Yrotation
                  End Site
                  {
                    OFFSET 1.62519 -0.234802 1.16502
                  }
                }
              }
              JOINT lMid1
              {
                OFFSET 8.24714 1.18213 3.41376
                CHANNELS 3 Zrotation Xrotation Yrotation
                JOINT lMid2
                {
                  OFFSET 3.10165 -0.590103 1.0647
                  CHANNELS 3 Zrotation Xrotation Yrotation
                  End Site
                  {
                    OFFSET 2.48547 -0.328903 0.83742
                  }
                }
              }
              JOINT lRing1
              {
                OFFSET 8.82822 0.546677 1.51678
                CHANNELS 3 Zrotation Xrotation Yrotation
                JOINT lRing2
                {
                  OFFSET 2.60934 -0.819778 -0.0198488
                  CHANNELS 3 Zrotation Xrotation Yrotation
                  End Site
                  {
                    OFFSET 2.33842 -0.294052 0.168128
                  }
                }
              }
              JOINT lPinky1
              {
                OFFSET 8.27202 -0.0477905 -0.4584
                CHANNELS 3 Zrotation Xrotation Yrotation
                JOINT lPinky2
                {
                  OFFSET 1.82734 -0.647385 -0.700984
                  CHANNELS 3 Zrotation Xrotation Yrotation
                  End Site
                  {
                    OFFSET 1.69225 -0.51767 -0.607171
                  }
                }
              }
            }
          }
        }
      }
    }
  }
  JOINT rButtock
  {
    OFFSET -8.77824 4.35084 1.2192
    CHANNELS 3 Zrotation Xrotation Yrotation
    JOINT rThigh
    {
      OFFSET 0 -1.70687 -2.19456
      CHANNELS 3 Zrotation Xrotation Yrotation
      JOINT rShin
      {
        OFFSET 0 -36.8199 0.73152
        CHANNELS 3 Zrotation Xrotation Yrotation
        JOINT rFoot
        {
          OFFSET 0.73152 -45.1104 -5.12064
          CHANNELS 3 Zrotation Xrotation Yrotation
          End Site
          {
            OFFSET -1.1221 -3.69964 12.103
          }
        }
      }
    }
  }
  JOINT lButtock
  {
    OFFSET 8.77824 4.35084 1.2192
    CHANNELS 3 Zrotation Xrotation Yrotation
    JOINT lThigh
    {
      OFFSET 0 -1.70687 -2.19456
      CHANNELS 3 Zrotation Xrotation Yrotation
      JOINT lShin
      {
        OFFSET 0 -36.8199 0.73152
        CHANNELS 3 Zrotation Xrotation Yrotation
        JOINT lFoot
        {
          OFFSET -0.73152 -45.1104 -5.12064
          CHANNELS 3 Zrotation Xrotation Yrotation
          End Site
          {
            OFFSET 1.1221 -3.69964 12.103
          }
        }
      }
    }
  }
}
MOTION
Frames:	4
Frame Time:	0.03333
0.022814176976680756 -0.137282133102417 0.028433028608560562 -15.423780083656311 -4.427973031997681 -2.7547480165958405 1.4627527445554733 8.649517893791199 3.926473706960678 -0.08336406201124191 -7.375557124614716 2.083336114883423 -2.419187743216753 9.905995354056358 -2.2938117384910583 8.293740302324295 -16.933557987213135 -4.612964317202568 0.15089018270373344 1.3567806780338287 -0.44853332452476025 -0.14613655395805836 1.202284600585699 1.074344739317894 -2.4135083332657814 -1.6706286370754242 1.2576664332300425 31.53776228427887 21.62996917963028 5.265620537102222 -20.214535295963287 -19.35594543814659 45.64168095588684 -0.45804183930158615 -4.408310763537884 -2.4226365610957146 0.20633311942219734 -0.1675497181713581 2.50625342130661 1.8829791247844696 0.5807429272681475 -0.1539415307343006 0.07100125774741173 0.6122437119483948 2.0465586706995964 5.717750117182732 2.1200981363654137 0.37010536529123783 -0.04730813205242157 0.08433489594608545 1.5316620469093323 2.0547612011432648 2.544703558087349 -1.2534747272729874 -2.1753767877817154 2.2367004677653313 -1.4449727162718773 7.219189032912254 0.6811619410291314 -0.5934400856494904 -1.5915074944496155 -0.07147014141082764 -0.17091528279706836 1.7202525213360786 -1.7629440687596798 -3.1200675666332245 -1.1657224036753178 1.9834033772349358 0.4839461110532284 -40.628530383110046 19.646062552928925 -19.696300327777863 15.959456115961075 -13.79720002412796 -41.85736835002899 1.834220252931118 -9.002050012350082 1.0086668282747269 -1.3287080079317093 -0.6433599349111319 0.010356511920690536 1.4836253598332405 -2.3403044790029526 -1.5933729708194733 -1.5671389549970627 1.322799939662218 0.7180094160139561 -8.015534207224846 3.6178674548864365 -0.5185896903276443 -1.390838697552681 0.8118265494704247 -1.5026864781975746 -2.8602154925465584 0.4343820735812187 -1.7729153484106064 -1.161835715174675 1.334468051791191 0.4304816387593746 -10.054004341363907 2.035563290119171 -1.3969363644719124 -1.5336757153272629 0.24331248365342617 0.6013329885900021 -3.9829476177692413 1.169472299516201 0.24440322071313858 -0.38581330329179764 0.18432877957820892 -1.720295436680317 -22.5309419631958 -21.015340983867645 -16.426758617162704 -11.993415802717209 44.06637400388718 18.035670965909958 -4.560998864471912 -10.117055028676987 -7.1850840747356415 -1.6965089365839958 -2.598761133849621 1.217226516455412 27.357035279273987 -26.66553497314453 21.926707327365875 18.732014000415802 42.809606194496155 -11.18612453341484 5.845894664525986 -8.731581419706345 8.03439348936081
0.03628422599285841 -0.4152560532093048 0.10112237557768822 -19.34317946434021 -2.524113580584526 1.3756117969751358 -0.39308376610279083 12.548595517873764 4.246145412325859 1.9187939912080765 -8.923961520195007 1.154646473005414 -4.650758653879166 14.867583811283112 -2.8033607080578804 8.477116227149963 -23.090051114559174 -4.9314310401678085 -0.5810092203319073 -0.6371627748012543 -0.18629467114806175 -0.06688306108117104 -0.3688466548919678 0.6865217909216881 -1.2486695498228073 -0.5468008294701576 0.5433610640466213 43.890230655670166 28.938221633434296 9.620466828346252 -22.764535546302795 -25.80263078212738 59.54793691635132 -3.2684731855988503 -8.707617223262787 -3.9405663684010506 -0.30886827036738396 0.5777895636856556 -0.2038123458623886 0.8824512921273708 0.16458076424896717 0.9623103775084019 -0.3966866433620453 -0.574860256165266 0.3031439334154129 6.9535598158836365 4.788963161408901 -0.5615720059722662 0.33412604592740536 0.23966966662555933 0.1921350136399269 2.7906917966902256 1.5364082157611847 -0.039540454745292664 0.3397681564092636 0.6378759071230888 -0.6383747979998589 9.791774824261665 0.5694885458797216 0.5341964587569237 0.2677357569336891 -0.7430748268961906 0.24786903290078044 2.5615401193499565 -1.2100836262106895 -1.2331308424472809 -0.2507074177265167 0.5176291242241859 0.0863354466855526 -54.66324269771576 27.281839549541473 -22.84195750951767 20.526321977376938 -21.495884209871292 -54.02332127094269 4.129907190799713 -8.246026486158371 2.004767507314682 -0.028718411922454834 -0.6260467786341906 0.20735722035169601 0.38764894008636475 -0.3608590364456177 -0.048247575759887695 -0.2795277535915375 0.05970563739538193 0.1339573971927166 -8.536189869046211 4.758285395801067 -0.28594921343028545 -0.0994345173239708 0.3325231745839119 -0.1620255410671234 -3.385397382080555 1.5845602378249168 -1.0366234928369522 0.7847593724727631 0.5471736565232277 0.3226552437990904 -10.401216298341751 1.1446920409798622 -0.5548332072794437 0.08140638470649719 0.4860338754951954 -0.15912171453237534 -2.671353444457054 -0.05117688328027725 -0.14481162652373314 -0.6493618804961443 -0.25887164287269115 -0.6370916962623596 -29.240935742855072 -28.39644491672516 -24.098234474658966 -18.63878309726715 57.09840416908264 20.24104356765747 -4.328390657901764 -10.677856653928757 -10.195967629551888 -0.21337173879146576 -0.8409808203577995 0.04148706793785095 38.115225434303284 -31.65772944688797 32.32414573431015 23.101793825626373 56.84747278690338 -20.415494441986084 5.203604847192764 -10.241913199424744 12.162140160799026
0.169627177529037 -0.4701756238937378 -0.4063548482954502 -93.4637725353241 0.3743485361337662 -63.23450446128845 -2.687348797917366 13.652638345956802 3.6921800673007965 2.742576152086258 -11.565535068511963 1.0308022610843182 -2.6938204653561115 15.493045449256897 -6.579033583402634 9.351662546396255 -23.09399664402008 -8.957598432898521 -0.226603914052248 -0.41756562888622284 -0.42237340472638607 1.579844243824482 0.5829231441020966 0.6760038435459137 -0.8565305918455124 -0.1722598448395729 0.4002108983695507 42.660917937755585 28.94710510969162 24.015174508094788 -22.267243266105652 -25.46116679906845 57.745020389556885 -2.6692093536257744 -3.880433924496174 -4.759794138371944 0.6715831439942122 1.2848406471312046 0.6341841816902161 1.035933829843998 -0.754837654531002 0.30322423204779625 0.3610258363187313 -0.01612158492207527 0.7255496084690094 9.241465330123901 3.450855351984501 0.3857107926160097 -0.5772796925157309 0.8406941592693329 0.7466227188706398 3.7620509415864944 2.7185556292533875 0.17982836812734604 2.2121860831975937 -0.7178181409835815 -0.77873345464468 10.886110737919807 -0.3319921810179949 2.2866465523838997 2.183041535317898 -0.6493762135505676 -0.6086103245615959 1.3518968783318996 -0.3110292926430702 0.7469442486763 0.13494595885276794 1.6419293358922005 1.062591802328825 -62.342326641082764 34.83402281999588 -18.022368550300598 20.334309339523315 -24.18368697166443 -56.89796268939972 7.310391515493393 -15.011764615774155 7.709134742617607 0.12300979346036911 0.9036576747894287 1.0672586783766747 0.09861946105957031 1.9877857714891434 -1.4056320860981941 -1.0345783084630966 0.23561596870422363 0.22052032873034477 -8.56395274400711 4.103971570730209 0.4732316080480814 1.8419862538576126 2.4235625937581062 0.746314600110054 -3.5493333265185356 1.237698309123516 0.01641109585762024 1.4437271654605865 0.23717835545539856 -0.2973752561956644 -10.694568157196045 -0.17603404819965363 -0.4814712703227997 -0.7288279384374619 0.5889673344790936 -0.6970860064029694 -2.491151914000511 -0.07024940103292465 -0.21052817814052105 -0.25892176665365696 -1.3630033191293478 0.1718263328075409 -27.210600078105927 -34.09653604030609 -24.283336400985718 -13.332542181015015 56.22498035430908 16.298494040966034 -4.414028897881508 -9.98920887708664 -10.35313367843628 -0.6101200729608536 0.07119320333003998 0.18458258360624313 29.06503915786743 -32.89758861064911 20.90582638978958 9.344173818826675 59.04846668243408 -5.570757687091827 6.059815585613251 -11.585112512111664 13.984127193689346
0.24043758492916822 0.29758578538894653 -1.4587215818464756 -203.16317081451416 11.14566944539547 -173.33030104637146 -5.758800655603409 15.205896198749542 4.101836532354355 0.59085913002491 -11.41203761100769 3.6262909322977066 -0.38872601464390755 14.351194202899933 -5.568826161324978 6.860661506652832 -22.431489676237106 -5.177277959883213 -0.6123682670295238 2.0503073930740356 0.5891690868884325 -2.160800825804472 0.2804524451494217 0.08461682125926018 -0.34175097942352295 -0.6706112623214722 1.8612005934119225 24.440892040729523 34.5760640501976 46.98449671268463 -21.63798362016678 -22.901939749717712 58.1912487745285 -0.7300788536667824 5.982071757316589 -3.1144654378294945 -1.3363339472562075 2.559081371873617 1.0971904546022415 1.5844066813588142 0.0957334041595459 0.3993391804397106 -2.0958913676440716 0.2455507032573223 -1.9847086071968079 9.63096633553505 3.6037231609225273 2.6075487211346626 0.0036936532706022263 3.8481515273451805 0.06343591958284378 1.6593769378960133 2.751123681664467 -0.003285035490989685 2.9583726078271866 0.9504521638154984 2.809324935078621 12.241347134113312 -0.3308165352791548 1.3926133140921593 3.0423529073596 1.096065267920494 -0.33832711866125464 1.2717613577842712 -3.163980357348919 -1.4831777662038803 1.3816692307591438 1.415099948644638 0.4167068190872669 -57.82105565071106 31.84776395559311 -19.3729305267334 20.633865147829056 -20.261558443307877 -58.01551043987274 10.849666893482208 -16.870847940444946 15.59401050209999 -0.07104970514774323 3.001944422721863 0.8659622445702553 -1.1974239349365234 0.9568639844655991 -4.024846404790878 -1.8728628382086754 -2.151162140071392 0.7426325976848602 -7.688554152846336 2.76938047260046 2.3721932619810104 3.6356404423713684 4.805344417691231 1.9329701364040375 -3.9352110028266907 2.7043570205569267 1.0482984781265259 -2.571730501949787 0.8154547400772572 -1.9591458141803741 -11.190450936555862 -1.3148805499076843 0.5687570571899414 -2.90536779910326 0.6741536222398281 0.043545663356781006 -2.3439237847924232 0.7802076637744904 -0.5202135164290667 -0.38815210573375225 1.5247925743460655 1.6794943436980247 -27.670577466487885 -38.92773628234863 -22.642776668071747 -21.55311182141304 49.377193450927734 29.375617504119873 -4.581157341599464 -6.805368438363075 -12.267384678125381 -0.586576983332634 0.6493031233549118 -2.1636736392974854 18.35511803627014 -32.86648839712143 7.54108227789402 16.772177517414093 59.141786098480225 -8.986703753471375 3.8834229111671448 -14.307096004486084 14.97462809085846
